<svg xmlns="http://www.w3.org/2000/svg" viewBox="0 0 128 128">
  <!-- Pawprint icon -->
  <g transform="translate(64,52)">
    <!-- Main pad -->
    <path d="M-12,8 C-18,8 -24,2 -24,-6 C-24,-16 -16,-18 -8,-14 C-2,-10 2,-10 8,-14 C16,-18 24,-16 24,-6 C24,2 18,8 12,8 Z" fill="#008080"/>
    <!-- Toe 1 (leftmost) -->
    <ellipse cx="-18" cy="-22" rx="9" ry="12" fill="#008080" transform="rotate(-15,-18,-22)"/>
    <!-- Toe 2 (left) -->
    <ellipse cx="-8" cy="-30" rx="9" ry="12" fill="#008080" transform="rotate(-5,-8,-30)"/>
    <!-- Toe 3 (right) -->
    <ellipse cx="8" cy="-30" rx="9" ry="12" fill="#008080" transform="rotate(5,8,-30)"/>
    <!-- Toe 4 (rightmost) -->
    <ellipse cx="18" cy="-22" rx="9" ry="12" fill="#008080" transform="rotate(15,18,-22)"/>
  </g>
  <!-- VetMap text -->
  <text x="64" y="100" font-family="Arial, Helvetica, sans-serif" font-size="18" font-weight="bold" fill="#008080" text-anchor="middle">VetMap</text>
</svg>
